<svg xmlns="http://www.w3.org/2000/svg" xmlns:xlink="http://www.w3.org/1999/xlink" contentStyleType="text/css" data-diagram-type="CLASS" height="630px" preserveAspectRatio="none" style="width:796px;height:630px;background:#FFFFFF;" version="1.1" viewBox="0 0 796 630" width="796px" zoomAndPan="magnify"><defs/><g><!--class ShotResult--><g class="entity" data-entity="ShotResult" data-source-line="2" data-uid="ent0002" id="entity_ShotResult"><rect fill="#F1F1F1" height="96.8906" rx="2.5" ry="2.5" style="stroke:#181818;stroke-width:0.5;" width="107.7012" x="7" y="15"/><ellipse cx="22" cy="31" fill="#EB937F" rx="11" ry="11" style="stroke:#181818;stroke-width:1;"/><path d="M26.1094,37 L18.3906,37 L18.3906,24.6094 L26.1094,24.6094 L26.1094,26.7656 L20.8438,26.7656 L20.8438,29.4375 L25.6094,29.4375 L25.6094,31.5938 L20.8438,31.5938 L20.8438,34.8438 L26.1094,34.8438 L26.1094,37 Z " fill="#000000"/><text fill="#000000" font-family="sans-serif" font-size="14" lengthAdjust="spacing" textLength="75.7012" x="36" y="35.8467">ShotResult</text><line style="stroke:#181818;stroke-width:0.5;" x1="8" x2="113.7012" y1="47" y2="47"/><text fill="#000000" font-family="sans-serif" font-size="14" lengthAdjust="spacing" textLength="33.9814" x="13" y="63.9951">MISS</text><text fill="#000000" font-family="sans-serif" font-size="14" lengthAdjust="spacing" textLength="23.208" x="13" y="80.292">HIT</text><text fill="#000000" font-family="sans-serif" font-size="14" lengthAdjust="spacing" textLength="38.7871" x="13" y="96.5889">SUNK</text><line style="stroke:#181818;stroke-width:0.5;" x1="8" x2="113.7012" y1="103.8906" y2="103.8906"/></g><!--class IGameSession--><g class="entity" data-entity="IGameSession" data-source-line="8" data-uid="ent0003" id="entity_IGameSession"><rect fill="#F1F1F1" height="113.1875" rx="2.5" ry="2.5" style="stroke:#181818;stroke-width:0.5;" width="282.7578" x="150.5" y="7"/><ellipse cx="238.0171" cy="23" fill="#B4A7E5" rx="11" ry="11" style="stroke:#181818;stroke-width:1;"/><path d="M233.939,18.7656 L233.939,16.6094 L241.3296,16.6094 L241.3296,18.7656 L238.8608,18.7656 L238.8608,26.8438 L241.3296,26.8438 L241.3296,29 L233.939,29 L233.939,26.8438 L236.4077,26.8438 L236.4077,18.7656 L233.939,18.7656 Z " fill="#000000"/><text fill="#000000" font-family="sans-serif" font-size="14" font-style="italic" lengthAdjust="spacing" textLength="99.2236" x="258.5171" y="27.8467">IGameSession</text><line style="stroke:#181818;stroke-width:0.5;" x1="151.5" x2="432.2578" y1="39" y2="39"/><line style="stroke:#181818;stroke-width:0.5;" x1="151.5" x2="432.2578" y1="47" y2="47"/><ellipse cx="161.5" cy="60.6484" fill="#84BE84" rx="3" ry="3" style="stroke:#038048;stroke-width:1;"/><text fill="#000000" font-family="sans-serif" font-size="14" lengthAdjust="spacing" textLength="85.21" x="170.5" y="63.9951">startGame()</text><ellipse cx="161.5" cy="76.9453" fill="#84BE84" rx="3" ry="3" style="stroke:#038048;stroke-width:1;"/><text fill="#000000" font-family="sans-serif" font-size="14" lengthAdjust="spacing" textLength="74.2383" x="170.5" y="80.292">nextTurn()</text><ellipse cx="161.5" cy="93.2422" fill="#84BE84" rx="3" ry="3" style="stroke:#038048;stroke-width:1;"/><text fill="#000000" font-family="sans-serif" font-size="14" lengthAdjust="spacing" textLength="215.6328" x="170.5" y="96.5889">checkWinCondition() : Boolean</text><ellipse cx="161.5" cy="109.5391" fill="#84BE84" rx="3" ry="3" style="stroke:#038048;stroke-width:1;"/><text fill="#000000" font-family="sans-serif" font-size="14" lengthAdjust="spacing" textLength="256.7578" x="170.5" y="112.8857">calculateResults() : Map&lt;String,Int&gt;</text></g><!--class IPlayer--><g class="entity" data-entity="IPlayer" data-source-line="15" data-uid="ent0004" id="entity_IPlayer"><rect fill="#F1F1F1" height="113.1875" rx="2.5" ry="2.5" style="stroke:#181818;stroke-width:0.5;" width="268.8809" x="157.5" y="180"/><ellipse cx="263.8433" cy="196" fill="#B4A7E5" rx="11" ry="11" style="stroke:#181818;stroke-width:1;"/><path d="M259.7651,191.7656 L259.7651,189.6094 L267.1558,189.6094 L267.1558,191.7656 L264.687,191.7656 L264.687,199.8438 L267.1558,199.8438 L267.1558,202 L259.7651,202 L259.7651,199.8438 L262.2339,199.8438 L262.2339,191.7656 L259.7651,191.7656 Z " fill="#000000"/><text fill="#000000" font-family="sans-serif" font-size="14" font-style="italic" lengthAdjust="spacing" textLength="47.6943" x="284.3433" y="200.8467">IPlayer</text><line style="stroke:#181818;stroke-width:0.5;" x1="158.5" x2="425.3809" y1="212" y2="212"/><ellipse cx="168.5" cy="225.6484" fill="none" rx="3" ry="3" style="stroke:#038048;stroke-width:1;"/><text fill="#000000" font-family="sans-serif" font-size="14" lengthAdjust="spacing" textLength="95.1016" x="177.5" y="228.9951">name : String</text><ellipse cx="168.5" cy="241.9453" fill="none" rx="3" ry="3" style="stroke:#038048;stroke-width:1;"/><text fill="#000000" font-family="sans-serif" font-size="14" lengthAdjust="spacing" textLength="99.8115" x="177.5" y="245.292">board : IBoard</text><ellipse cx="168.5" cy="258.2422" fill="none" rx="3" ry="3" style="stroke:#038048;stroke-width:1;"/><text fill="#000000" font-family="sans-serif" font-size="14" lengthAdjust="spacing" textLength="148.5518" x="177.5" y="261.5889">enemyBoard : IBoard</text><line style="stroke:#181818;stroke-width:0.5;" x1="158.5" x2="425.3809" y1="268.8906" y2="268.8906"/><ellipse cx="168.5" cy="282.5391" fill="#84BE84" rx="3" ry="3" style="stroke:#038048;stroke-width:1;"/><text fill="#000000" font-family="sans-serif" font-size="14" lengthAdjust="spacing" textLength="242.8809" x="177.5" y="285.8857">makeShot(x:Int, y:Int) : ShotResult</text></g><!--class IBoard--><g class="entity" data-entity="IBoard" data-source-line="22" data-uid="ent0005" id="entity_IBoard"><rect fill="#F1F1F1" height="96.8906" rx="2.5" ry="2.5" style="stroke:#181818;stroke-width:0.5;" width="447.0527" x="68.5" y="353"/><ellipse cx="265.0161" cy="369" fill="#B4A7E5" rx="11" ry="11" style="stroke:#181818;stroke-width:1;"/><path d="M260.938,364.7656 L260.938,362.6094 L268.3286,362.6094 L268.3286,364.7656 L265.8599,364.7656 L265.8599,372.8438 L268.3286,372.8438 L268.3286,375 L260.938,375 L260.938,372.8438 L263.4067,372.8438 L263.4067,364.7656 L260.938,364.7656 Z " fill="#000000"/><text fill="#000000" font-family="sans-serif" font-size="14" font-style="italic" lengthAdjust="spacing" textLength="45.5205" x="285.5161" y="373.8467">IBoard</text><line style="stroke:#181818;stroke-width:0.5;" x1="69.5" x2="514.5527" y1="385" y2="385"/><ellipse cx="79.5" cy="398.6484" fill="none" rx="3" ry="3" style="stroke:#038048;stroke-width:1;"/><text fill="#000000" font-family="sans-serif" font-size="14" lengthAdjust="spacing" textLength="59.2539" x="88.5" y="401.9951">size : Int</text><line style="stroke:#181818;stroke-width:0.5;" x1="69.5" x2="514.5527" y1="409.2969" y2="409.2969"/><ellipse cx="79.5" cy="422.9453" fill="#84BE84" rx="3" ry="3" style="stroke:#038048;stroke-width:1;"/><text fill="#000000" font-family="sans-serif" font-size="14" lengthAdjust="spacing" textLength="421.0527" x="88.5" y="426.292">placeShip(ship:IShip, x:Int, y:Int, vertical:Boolean) : Boolean</text><ellipse cx="79.5" cy="439.2422" fill="#84BE84" rx="3" ry="3" style="stroke:#038048;stroke-width:1;"/><text fill="#000000" font-family="sans-serif" font-size="14" lengthAdjust="spacing" textLength="255.4111" x="88.5" y="442.5889">receiveShot(x:Int, y:Int) : ShotResult</text></g><!--class IShip--><g class="entity" data-entity="IShip" data-source-line="28" data-uid="ent0006" id="entity_IShip"><rect fill="#F1F1F1" height="113.1875" rx="2.5" ry="2.5" style="stroke:#181818;stroke-width:0.5;" width="142.2314" x="221" y="510"/><ellipse cx="270.5332" cy="526" fill="#B4A7E5" rx="11" ry="11" style="stroke:#181818;stroke-width:1;"/><path d="M266.4551,521.7656 L266.4551,519.6094 L273.8457,519.6094 L273.8457,521.7656 L271.377,521.7656 L271.377,529.8438 L273.8457,529.8438 L273.8457,532 L266.4551,532 L266.4551,529.8438 L268.9238,529.8438 L268.9238,521.7656 L266.4551,521.7656 Z " fill="#000000"/><text fill="#000000" font-family="sans-serif" font-size="14" font-style="italic" lengthAdjust="spacing" textLength="34.665" x="291.0332" y="530.8467">IShip</text><line style="stroke:#181818;stroke-width:0.5;" x1="222" x2="362.2314" y1="542" y2="542"/><ellipse cx="232" cy="555.6484" fill="none" rx="3" ry="3" style="stroke:#038048;stroke-width:1;"/><text fill="#000000" font-family="sans-serif" font-size="14" lengthAdjust="spacing" textLength="76.7334" x="241" y="558.9951">length : Int</text><ellipse cx="232" cy="571.9453" fill="none" rx="3" ry="3" style="stroke:#038048;stroke-width:1;"/><text fill="#000000" font-family="sans-serif" font-size="14" lengthAdjust="spacing" textLength="76.4258" x="241" y="575.292">health : Int</text><ellipse cx="232" cy="588.2422" fill="none" rx="3" ry="3" style="stroke:#038048;stroke-width:1;"/><text fill="#000000" font-family="sans-serif" font-size="14" lengthAdjust="spacing" textLength="116.2314" x="241" y="591.5889">isSunk : Boolean</text><line style="stroke:#181818;stroke-width:0.5;" x1="222" x2="362.2314" y1="598.8906" y2="598.8906"/><ellipse cx="232" cy="612.5391" fill="#84BE84" rx="3" ry="3" style="stroke:#038048;stroke-width:1;"/><text fill="#000000" font-family="sans-serif" font-size="14" lengthAdjust="spacing" textLength="29.1758" x="241" y="615.8857">hit()</text></g><!--class IStatisticsManager--><g class="entity" data-entity="IStatisticsManager" data-source-line="35" data-uid="ent0007" id="entity_IStatisticsManager"><rect fill="#F1F1F1" height="80.5938" rx="2.5" ry="2.5" style="stroke:#181818;stroke-width:0.5;" width="320.123" x="469" y="23"/><ellipse cx="560.0649" cy="39" fill="#B4A7E5" rx="11" ry="11" style="stroke:#181818;stroke-width:1;"/><path d="M555.9868,34.7656 L555.9868,32.6094 L563.3774,32.6094 L563.3774,34.7656 L560.9087,34.7656 L560.9087,42.8438 L563.3774,42.8438 L563.3774,45 L555.9868,45 L555.9868,42.8438 L558.4556,42.8438 L558.4556,34.7656 L555.9868,34.7656 Z " fill="#000000"/><text fill="#000000" font-family="sans-serif" font-size="14" font-style="italic" lengthAdjust="spacing" textLength="129.4932" x="580.5649" y="43.8467">IStatisticsManager</text><line style="stroke:#181818;stroke-width:0.5;" x1="470" x2="788.123" y1="55" y2="55"/><line style="stroke:#181818;stroke-width:0.5;" x1="470" x2="788.123" y1="63" y2="63"/><ellipse cx="480" cy="76.6484" fill="#84BE84" rx="3" ry="3" style="stroke:#038048;stroke-width:1;"/><text fill="#000000" font-family="sans-serif" font-size="14" lengthAdjust="spacing" textLength="234.2813" x="489" y="79.9951">saveGameHistory(history: String)</text><ellipse cx="480" cy="92.9453" fill="#84BE84" rx="3" ry="3" style="stroke:#038048;stroke-width:1;"/><text fill="#000000" font-family="sans-serif" font-size="14" lengthAdjust="spacing" textLength="294.123" x="489" y="96.292">getPlayerRating(playerId: String) : Double</text></g><!--link IGameSession to IPlayer--><g class="link" data-entity-1="IGameSession" data-entity-2="IPlayer" data-source-line="40" data-uid="lnk8" id="link_IGameSession_IPlayer"><path codeLine="40" d="M292,120.02 C292,139.23 292,154.75 292,173.97" fill="none" id="IGameSession-to-IPlayer" style="stroke:#181818;stroke-width:1;stroke-dasharray:7,7;"/><polygon fill="#181818" points="292,179.97,296,170.97,292,174.97,288,170.97,292,179.97" style="stroke:#181818;stroke-width:1;"/></g><!--link IPlayer to IBoard--><g class="link" data-entity-1="IPlayer" data-entity-2="IBoard" data-source-line="41" data-uid="lnk9" id="link_IPlayer_IBoard"><path codeLine="41" d="M292,293.14 C292,312.6 292,328.25 292,346.99" fill="none" id="IPlayer-to-IBoard" style="stroke:#181818;stroke-width:1;stroke-dasharray:7,7;"/><polygon fill="#181818" points="292,352.99,296,343.99,292,347.99,288,343.99,292,352.99" style="stroke:#181818;stroke-width:1;"/></g><!--link IBoard to IShip--><g class="link" data-entity-1="IBoard" data-entity-2="IShip" data-source-line="42" data-uid="lnk10" id="link_IBoard_IShip"><path codeLine="42" d="M292,450.08 C292,468.78 292,484.38 292,503.8" fill="none" id="IBoard-to-IShip" style="stroke:#181818;stroke-width:1;stroke-dasharray:7,7;"/><polygon fill="#181818" points="292,509.8,296,500.8,292,504.8,288,500.8,292,509.8" style="stroke:#181818;stroke-width:1;"/></g><!--SRC=[bLBTIiCm5BxlK-JEYcKFCCIBARWY4x4JhsDtRCFIT2Jfi8hWHF0vV0CH17LCNo5z8q-QrlteZOKsEL_EET_NysMBc2VpPTwgcVaq7yHycBbvhcPr-18GysOMrRrvhUwg1_DgtXsECC4YHF5zh8ldUBh0x7SFH96HACtrAQY2QtBZ4Nm6OHJLctuuhDVexFZ8k_Ky9ZJ8Ine32Gzf1X4enNBHLEqeJQMskB_j005NUbX8qSPn2l7ud8dzN8oOnaf_ctH9ByyvKD6aK1uNd6fmWbITCQ2JtKXB9f8W57flGya9foN8LeH0VYnnwGwwoAaS8HRsxCPX820hUtySP7GCTY3-LHUv0bBQnOfOJcc3ttLfPy2kBJtMk7Z2CITAsSHN-Ec6TXkGrTu1cOBK37-ysqpYrr0anC2c_vHbcLfL74IYqrLTAL2-ZZ0L5MAyIPqoZUvjTDPKCuMIrO0AcYndh-WKhFzzFCrbwQTkRTreRa42sbbsYcr4ua_g81pzfA66Wxouu61vrovQfxFN-ksrljUOCx2neaRixty3]--></g></svg>